<?xml version="1.0" ?><!DOCTYPE svg  PUBLIC '-//W3C//DTD SVG 1.1//EN'  'http://www.w3.org/Graphics/SVG/1.1/DTD/svg11.dtd'><svg enable-background="new 0 0 91 91" height="91px" id="Layer_1" version="1.1" viewBox="0 0 91 91" width="91px" xml:space="preserve" xmlns="http://www.w3.org/2000/svg" xmlns:xlink="http://www.w3.org/1999/xlink"><g><g><ellipse cx="46.152" cy="48.096" fill="#E4E4E6" rx="21.771" ry="20.356"/><g><path d="M45.704,70.514c-13.48,0-24.446-9.318-24.446-20.773c0-1.223,0.992-2.215,2.216-2.215     c1.223,0,2.215,0.992,2.215,2.215c0,9.011,8.979,16.342,20.016,16.342c11.03,0,20.004-7.331,20.004-16.342     c0-1.223,0.992-2.215,2.215-2.215s2.215,0.992,2.215,2.215C70.138,61.195,59.177,70.514,45.704,70.514z" fill="#434B56"/><g><path d="M82.623,57.032c-1.543,0-2.839-1.033-4.26-2.012C63.625,44.832,57.184,44.832,45.7,44.832      c-11.481,0-16.849,0-33.023,10.188c-2.917,1.833-6.167,2.684-8.514,0.004c-2.352-2.687-2.354-7.036,0-9.72      c12.312-14.053,26.613-21.479,41.356-21.479c14.747,0,29.049,7.426,41.358,21.479c2.356,2.684,2.353,7.033,0,9.72      C85.704,56.359,84.164,57.032,82.623,57.032z" fill="#F9BA8F"/><path d="M82.623,59.247c-2.079,0-3.674-1.115-5.084-2.1l-0.433-0.304c-14.174-9.796-19.933-9.796-31.407-9.796      c-11.13,0-16.21,0-31.843,9.848c-4.572,2.871-8.682,2.646-11.362-0.412c-3.104-3.546-3.104-9.098,0.002-12.64      c12.743-14.545,27.62-22.233,43.021-22.233c15.405,0,30.283,7.688,43.023,22.235c3.108,3.538,3.108,9.092,0,12.638      C86.979,58.267,84.876,59.247,82.623,59.247z M45.7,42.617c11.61,0,18.616,0,33.922,10.581l0.458,0.318      c0.998,0.698,1.86,1.302,2.543,1.302c0.96,0,1.877-0.447,2.589-1.256c1.613-1.843,1.615-4.956,0-6.797      C73.335,33.207,59.609,26.041,45.519,26.041c-14.087,0-27.812,7.167-39.69,20.723c-1.616,1.843-1.615,4.956,0,6.799      c0.575,0.658,1.184,0.952,1.972,0.952c0.993,0,2.271-0.473,3.697-1.37C28.21,42.617,34.056,42.617,45.7,42.617z" fill="#434B56"/></g><path d="M22.504,44.104c-0.217,0-0.438-0.033-0.656-0.099c-1.169-0.363-1.823-1.604-1.461-2.772l4.384-14.137     c0.362-1.167,1.602-1.822,2.771-1.459c1.168,0.363,1.822,1.603,1.459,2.772L24.62,42.543     C24.324,43.493,23.448,44.104,22.504,44.104z" fill="#434B56"/><path d="M38.454,37.868c-0.156,0-0.316-0.018-0.475-0.052c-1.195-0.261-1.953-1.442-1.691-2.638l2.511-11.48     c0.261-1.196,1.44-1.954,2.636-1.692c1.196,0.261,1.954,1.442,1.692,2.638l-2.511,11.48C40.39,37.16,39.472,37.868,38.454,37.868     z" fill="#434B56"/><path d="M55.657,41.593c-0.156,0-0.314-0.015-0.475-0.051c-1.194-0.261-1.952-1.442-1.69-2.636l2.509-11.482     c0.261-1.196,1.441-1.954,2.638-1.692c1.194,0.261,1.951,1.442,1.69,2.638L57.82,39.852     C57.594,40.887,56.676,41.593,55.657,41.593z" fill="#434B56"/><path d="M68.919,45.685c-0.229,0-0.462-0.036-0.69-0.111c-1.164-0.381-1.795-1.634-1.414-2.795l3.443-10.488     c0.382-1.164,1.633-1.797,2.795-1.414c1.164,0.382,1.795,1.633,1.413,2.795l-3.442,10.49     C70.718,45.094,69.85,45.685,68.919,45.685z" fill="#434B56"/><path d="M34.226,56.325c-0.219,0-0.442-0.032-0.661-0.102c-1.167-0.366-1.818-1.608-1.454-2.775l0.721-2.311     c0.364-1.165,1.606-1.817,2.774-1.453c1.167,0.364,1.819,1.608,1.455,2.775l-0.721,2.309     C36.043,55.717,35.168,56.325,34.226,56.325z" fill="#434B56"/><path d="M40.964,61.231c-0.734,0-1.452-0.364-1.873-1.03l-1.255-1.984c-0.653-1.033-0.345-2.403,0.688-3.056     c1.035-0.654,2.402-0.345,3.056,0.687l1.255,1.984c0.653,1.034,0.345,2.403-0.689,3.056     C41.778,61.121,41.369,61.231,40.964,61.231z" fill="#434B56"/><path d="M50.003,56.325c-0.835,0-1.635-0.476-2.011-1.28l-1.075-2.311c-0.518-1.107-0.038-2.426,1.071-2.943     c1.108-0.517,2.427-0.036,2.944,1.072l1.075,2.309c0.518,1.11,0.038,2.426-1.07,2.945C50.635,56.258,50.316,56.325,50.003,56.325     z" fill="#434B56"/><path d="M56.912,59.247c-1.225,0-2.216-0.991-2.216-2.215v-4.08c0-1.223,0.991-2.215,2.216-2.215     c1.223,0,2.215,0.992,2.215,2.215v4.08C59.127,58.256,58.135,59.247,56.912,59.247z" fill="#434B56"/></g></g></g></svg>